<svg version="1" xmlns="http://www.w3.org/2000/svg" width="682.667" height="682.667" viewBox="0 0 512.000000 512.000000"><path d="M1.9 162.5c-.1.5-.2 41.6-.3 91.1l-.1 90.2 12-.2 12-.1v-79.2c0-57.7.3-78.6 1.1-77 .6 1.2 11.1 29.1 23.5 61.9L72.5 309H97l1.6-3.8c.8-2 2.2-5.7 3.1-8.2.8-2.5 3.5-9.5 5.8-15.5 5.6-14.4 32.4-85.8 34.3-91.3.8-2.3 1.7-4 2-3.8.2.3.5 35.8.6 78.8l.1 78.3 11.8.3c6.4.2 11.7-.1 11.8-.5 0-.4.1-41.4.2-91 .1-59.5-.1-90.4-.8-90.6-.5-.2-8.9-.3-18.5-.2l-17.4.1-6.8 17.9c-3.8 9.9-8.4 22.3-10.4 27.5-4.7 12.1-7.5 19.6-10.9 29-1.5 4.1-3.3 8.8-4 10.5-.7 1.6-3.8 9.7-6.8 18-3.1 8.2-6.1 16.3-6.7 18-1.1 2.8-2.5-.6-22.1-53-11.6-30.8-22.1-58.7-23.3-62l-2.4-5.9-18.1-.1c-11.3 0-18.1.4-18.2 1zM230.1 249.5c-5.7 14.8-10.9 28.3-11.6 30-.7 1.6-2.9 7.5-4.9 13-2.1 5.5-4.2 10.9-4.7 12-.8 1.8-4.8 12.3-12 31.8l-2.9 7.8 8.8-.3 8.7-.3 5.2-14.5c2.8-8 5.3-14.9 5.5-15.4.2-.5 12-.9 26.3-.8 31.5 0 29.5 0 29.5 1.3 0 1.2 6.3 19.5 8 23.4.5 1.1 1.1 3 1.5 4.1.5 2 1.2 2.2 9 2.2 4.7 0 8.5-.1 8.5-.3 0-.2-4.2-11.6-9.4-25.2s-11.5-30.4-14.1-37.3c-2.6-6.9-5.1-13.4-5.6-14.5-.5-1.1-4.2-10.8-8.3-21.5-4.1-10.7-7.7-20.3-8.1-21.2-.6-1.4-2.1-1.6-9.9-1.5l-9.3.1-10.2 27.1zm30.8 19.6l11 29.4-21.6.3c-11.9.1-21.8 0-22.1-.3-.3-.3.6-3.5 2.1-7.2 1.4-3.8 6.3-17 10.8-29.5 4.6-12.5 8.5-22.6 8.6-22.4.2.2 5.2 13.5 11.2 29.7zM360.5 250.8c-4.2.7-12.5 3.5-12.5 4.2 0 .4-1.1 1.2-2.5 1.8-1.3.6-3.8 3-5.5 5.3l-3 4.2v-6.6c0-4.7-.4-6.7-1.2-6.8-.7 0-4.1-.2-7.6-.2l-6.2-.2-.1 38.2c0 21.1-.1 49.4-.1 63l-.1 24.8h14.8l.5-23.8c.5-23.4.5-23.7 2.3-20.9 9.2 13.5 32.5 16.4 46.9 5.7 8.1-5.9 14.7-18.1 16.5-30.4.9-6.5.5-19.6-.8-26.1-2.6-13.1-13.2-26.6-23.5-30.3-4.8-1.7-13.8-2.7-17.9-1.9zm9.7 13.8c11.7 3.9 17.9 16.8 17.3 35.8-.4 13.6-4.7 24.1-12.2 29.3-8.2 5.8-21.2 4.8-28.4-2.1-7.4-7.2-10.6-18.4-9.6-34.1.4-7.9 1.1-10.5 3.7-15.8 6.2-12.5 16.9-17.3 29.2-13.1zM465.2 251.2c-7.2 1.1-14.3 4.9-18.8 10.2l-3.9 4.6.2-6.5c.2-6 0-6.5-2-6.6-2.7-.1-12-.1-12.7 0-.3.1-.5 28.3-.5 62.8l.1 62.8 6.4.1c3.6 0 7-.1 7.6-.3.8-.3 1.1-7.2 1-23.8l-.1-23.4 4.8 5c7.2 7.5 12 9.4 24.2 9.4 11.9 0 17-2 24.4-9.5 8.7-8.8 12.9-21.1 12.9-38 .1-27.9-14.1-46.6-35.8-47.5-1.4 0-4.9.3-7.8.7zm13.5 14.1c3.1 1.7 7.1 5.7 9.7 9.8 5.1 8.1 6.6 28 3.1 39.4-3.8 12.1-11.9 18.7-22.9 18.8-17.8.3-27.6-15.6-25.4-41.2 1.2-14.1 7.3-24.1 17-27.8 4.1-1.6 14.7-.9 18.5 1z"/></svg>