<svg version="1" xmlns="http://www.w3.org/2000/svg" width="682.667" height="682.667" viewBox="0 0 512.000000 512.000000"><path d="M83.3 182.4c-5.7 3.3-55.2 53-56.9 57.2C22 250 28.9 262 40 263.5c7.1 1 11-1.2 22.5-12.5 5.5-5.5 10.3-10 10.6-10 .3 0 .3 63.8 0 80.7l-.1 4.2H62.2c-12.2 0-16.5 1.3-20.5 6.1-3 3.5-4.2 8.3-3.5 14.5.7 5.6 4.1 10.3 9.2 12.6 3.8 1.7 7.3 1.8 43.7 1.8 39.5.1 39.7 0 44-2.2 6.5-3.5 9.1-8.5 8.6-16.5-.4-5.2-1-7.1-3.4-10-3.9-4.9-8.3-6.2-21.2-6.5l-10.6-.2-.1-66v-66.1l-2.5-4.4c-4.5-8.2-14.7-11.1-22.6-6.6zM229.2 181.2c-31.2 4.8-57.5 34.5-63.7 72-1.9 11.4-1.2 31.9 1.4 42.3 2.4 9.1 6.4 19.2 9.8 24.7 1.3 2.1 2.3 4 2.3 4.4 0 .3.6 1.2 1.3 2 .6.7 3.4 4.2 6.1 7.6 10.7 13.7 26.5 23.4 41.5 25.6 10.1 1.5 24.2.5 32.6-2.3 8.9-2.9 21.9-11.1 27.6-17.2 18.1-19.6 27.2-42.6 27.2-68.8 0-13.5-1.4-22.7-4.9-33.3-9.6-29-30.6-50.4-55.1-56.1-6.4-1.6-19.2-2-26.1-.9zm24 37.1c16.4 7.8 28.1 31.2 27.2 54.8-.3 8.1-.6 9.5-3 17.8-4.8 16.7-17.1 30.9-29.3 33.9-6.8 1.7-16.1.7-22.5-2.3-11.8-5.6-22.6-22.7-25.6-40.5-2.6-15.1.5-32.3 8-45.4 3.6-6.4 11.5-14.8 16.1-17.2 9.5-4.9 20.1-5.3 29.1-1.1z"/><path d="M234.4 254c-3.9.9-8.9 4.5-10.3 7.6-7.3 16.1 8.6 32.3 23.9 24.2 12.1-6.5 12.5-24.4.7-30.5-3.2-1.6-9.8-2.3-14.3-1.3zM411 188.6c-4.3 1.8-7.7 4.9-9.8 8.9-1.4 2.5-1.7 6.9-1.9 27-.1 13.2-.2 24.9-.2 26.1-.1 2-.4 2.1-23.8 2-14.3-.1-25.4.3-28 1-8.1 2.1-13.3 9.1-13.3 18.1 0 9.9 3.4 15.5 11.3 18.8 3.2 1.3 8.2 1.6 28.8 1.6H399l.1 5.2c0 2.9.1 14.6.2 26.2.2 20 .3 21.2 2.6 25.1 5.5 9.8 21.2 12.2 30.2 4.7 5.8-5 6.3-7.2 6.5-34.8.1-13.8.3-25.3.3-25.7.1-.3 11.2-.7 24.8-.7 15.5 0 26-.5 28.2-1.2 9.7-3.1 14.4-14.2 11.1-26.1-1.3-4.7-7.7-10.5-12.7-11.4-2.1-.4-14.5-.7-27.5-.7-13.1-.1-23.8-.3-23.9-.6 0-.3-.2-12.1-.3-26.1-.2-27.8-.3-28.6-6.3-34.1-4.9-4.6-14.8-6.2-21.3-3.3z"/></svg>